<svg width="25" height="25" viewBox="0 0 25 25" fill="none" xmlns="http://www.w3.org/2000/svg">
<rect x="0.243164" y="0.597656" width="23.9465" height="23.9465" rx="4.35391" transform="rotate(-0.565899 0.243164 0.597656)" fill="#EFF9FF"/>
<path d="M15.9082 18.8978L16.652 18.1508L13.7176 15.3174L12.9739 16.0645C12.5751 16.465 12.3784 16.944 12.3839 17.5015C12.3894 18.0589 12.5955 18.5339 13.0022 18.9265C13.4088 19.3192 13.8951 19.5127 14.4611 19.5071C15.0271 19.5015 15.5094 19.2984 15.9082 18.8978ZM17.5573 17.2413L18.3011 16.4943C18.6999 16.0937 18.8965 15.6147 18.891 15.0573C18.8855 14.4999 18.6794 14.0248 18.2728 13.6322C17.8661 13.2396 17.3798 13.046 16.8139 13.0516C16.2479 13.0572 15.7655 13.2603 15.3667 13.6609L14.623 14.4079L17.5573 17.2413ZM8.39668 10.5619L14.9272 10.4974L14.9145 9.21104L8.38398 9.27554L8.39668 10.5619ZM11.6318 7.4746C11.7733 7.4732 11.8899 7.42638 11.9818 7.33414C12.0736 7.24189 12.1186 7.12631 12.1168 6.98739C12.115 6.84848 12.0675 6.73381 11.9743 6.64339C11.8811 6.55297 11.7638 6.50846 11.6223 6.50986C11.4808 6.51126 11.3643 6.55808 11.2729 6.65032C11.1815 6.74256 11.1363 6.85814 11.1372 6.99707C11.1382 7.136 11.1857 7.25088 11.2797 7.34172C11.3738 7.43255 11.4912 7.47685 11.6318 7.4746ZM11.1668 18.2532L7.1668 18.2927C6.80762 18.2962 6.49901 18.1734 6.24096 17.9243C5.98291 17.6751 5.85192 17.3734 5.84799 17.0193L5.75905 8.01502C5.75556 7.66129 5.88057 7.35731 6.13408 7.10309C6.38759 6.84887 6.69372 6.71978 7.05246 6.7158L9.79529 6.68871C9.93297 6.30142 10.1667 5.98822 10.4966 5.74911C10.8265 5.51 11.198 5.38841 11.6111 5.38433C12.0243 5.38025 12.3984 5.49448 12.7333 5.72702C13.0683 5.95956 13.308 6.26808 13.4524 6.65259L16.1952 6.6255C16.5544 6.62195 16.8632 6.74497 17.1217 6.99456C17.3802 7.24415 17.511 7.54561 17.514 7.89892L17.553 11.8383C17.0948 11.7356 16.6404 11.7319 16.1898 11.8273C15.7392 11.9227 15.3244 12.0959 14.9455 12.3471L14.9399 11.7837L8.40939 11.8482L8.42209 13.1345L14.12 13.0782L12.8266 14.3775L8.4348 14.4208L8.44751 15.7071L11.6312 15.6757C11.3845 16.0534 11.217 16.4652 11.1287 16.9112C11.0404 17.3571 11.0533 17.8045 11.1674 18.2532" fill="#0069AB"/>
</svg>
