<svg width="25" height="25" viewBox="0 0 25 25" fill="none" xmlns="http://www.w3.org/2000/svg">
<rect x="0.731445" y="0.775391" width="23.9465" height="23.9465" rx="4.35391" transform="rotate(-0.565899 0.731445 0.775391)" fill="#EFF9FF"/>
<path d="M9.93545 5.58295C9.56186 5.58664 9.20499 5.73216 8.94332 5.98749C8.68165 6.24282 8.53663 6.58704 8.54016 6.94444C8.54369 7.30184 8.69548 7.64314 8.96214 7.89325C9.2288 8.14336 9.58848 8.28179 9.96207 8.2781L15.5964 8.22245C15.7814 8.22062 15.9642 8.18396 16.1345 8.11455C16.3047 8.04514 16.459 7.94434 16.5886 7.81792C16.7181 7.69149 16.8204 7.54191 16.8896 7.37772C16.9588 7.21352 16.9935 7.03793 16.9917 6.86096C16.99 6.684 16.9518 6.50912 16.8794 6.34633C16.807 6.18353 16.7018 6.036 16.5697 5.91216C16.4377 5.78832 16.2814 5.69059 16.1099 5.62456C15.9383 5.55852 15.7548 5.52548 15.5698 5.5273L9.93545 5.58295Z" fill="#0069AB"/>
<path fill-rule="evenodd" clip-rule="evenodd" d="M9.77702 9.62764C9.56644 9.62977 9.359 9.67705 9.16996 9.76599C8.98093 9.85493 8.81505 9.98334 8.68464 10.1416L7.13975 12.0178C6.94114 12.2592 6.83459 12.5583 6.83773 12.8654L6.89256 18.4162C6.89609 18.7736 7.04788 19.1149 7.31454 19.365C7.5812 19.6151 7.94088 19.7536 8.31446 19.7499L17.47 19.6594C17.8435 19.6558 18.2004 19.5102 18.4621 19.2549C18.7238 18.9996 18.8688 18.6554 18.8652 18.298L18.8104 12.747C18.8075 12.4399 18.695 12.1431 18.4917 11.9056L16.9104 10.0603C16.7768 9.90452 16.6083 9.77941 16.4173 9.69422C16.2265 9.60904 16.0179 9.56594 15.8072 9.56808L9.77702 9.62764ZM13.5268 12.6229C13.5231 12.2508 13.2048 11.9522 12.8158 11.9561C12.4269 11.9599 12.1145 12.2647 12.1182 12.6368L12.1315 13.9844L10.7229 13.9983C10.3339 14.0021 10.0216 14.3069 10.0253 14.679C10.0289 15.0512 10.3473 15.3497 10.7362 15.3459L12.1448 15.332L12.1581 16.6795C12.1618 17.0517 12.4801 17.3502 12.8691 17.3464C13.258 17.3425 13.5704 17.0377 13.5667 16.6656L13.5534 15.318L14.962 15.3041C15.351 15.3003 15.6633 14.9955 15.6596 14.6234C15.656 14.2513 15.3377 13.9527 14.9487 13.9566L13.5401 13.9705L13.5268 12.6229Z" fill="#0069AB"/>
</svg>
