<svg width="25" height="25" viewBox="0 0 25 25" fill="none" xmlns="http://www.w3.org/2000/svg">
<rect x="0.755127" y="0.419922" width="23.9465" height="23.9465" rx="4.35391" transform="rotate(-0.565899 0.755127 0.419922)" fill="#EFF9FF"/>
<path d="M13.7203 8.94966L13.6939 6.27962C13.6879 5.6785 13.1958 5.19601 12.5947 5.20195L8.1503 5.24584C7.77332 5.24957 7.33842 5.70267 7.34205 6.07023L7.46568 18.5871C7.46931 18.9547 7.91308 19.3991 8.29006 19.3954L17.5417 19.304C17.9187 19.3003 18.3536 18.8472 18.3499 18.4796L18.2727 10.6566C18.2667 10.0554 17.7746 9.57294 17.1735 9.57888L14.4071 9.6062C14.0329 9.6099 13.7239 9.31446 13.7203 8.94966ZM15.7117 13.8906L16.0354 14.1999C16.2142 14.3709 16.217 14.6509 16.0415 14.8253L15.4001 15.4632C15.2916 15.5711 15.2934 15.7472 15.4039 15.8529L16.0624 16.4823C16.2413 16.6533 16.2441 16.9333 16.0686 17.1077L15.7511 17.4235C15.5757 17.5979 15.2885 17.6008 15.1097 17.4298L14.4412 16.7906C14.3345 16.6886 14.166 16.6902 14.0613 16.7943L13.4056 17.4464C13.2302 17.6208 12.943 17.6237 12.7642 17.4527L12.4405 17.1433C12.2617 16.9723 12.2589 16.6924 12.4343 16.5179L13.0803 15.8756C13.1887 15.7677 13.187 15.5916 13.0764 15.4859L11.6606 14.1328C11.6093 14.0837 11.5409 14.0567 11.4699 14.0574L11.3215 14.0588C11.1712 14.0603 11.0506 14.1834 11.0521 14.3336L11.0625 15.388C11.0649 15.6323 10.8639 15.8322 10.6134 15.8347L10.1599 15.8392C9.9093 15.8417 9.7044 15.6458 9.70199 15.4015L9.65831 10.9798C9.6559 10.7355 9.85689 10.5356 10.1075 10.5331L12.375 10.5107C13.377 10.5008 14.1969 11.2846 14.2065 12.2615C14.2118 12.7998 13.9669 13.28 13.5798 13.6065C13.439 13.7252 13.4091 13.946 13.5422 14.0732L14.0391 14.5482C14.1458 14.6502 14.3144 14.6486 14.419 14.5445L15.0703 13.8969C15.2457 13.7224 15.5328 13.7196 15.7117 13.8906ZM12.3968 12.7216L11.4785 12.7306C11.2343 12.7331 11.0344 12.537 11.0319 12.2928C11.0295 12.0486 11.2255 11.8487 11.4698 11.8463L12.3881 11.8372C12.6381 11.8348 12.8436 12.0312 12.846 12.2749C12.8484 12.5187 12.6468 12.7191 12.3968 12.7216ZM18.2515 8.51521C18.2524 8.60831 18.1777 8.68453 18.0846 8.68545L15.7135 8.70887C15.1124 8.71481 14.6203 8.23231 14.6143 7.63119L14.5919 5.35514C14.5909 5.25965 14.6676 5.18147 14.7631 5.18053C14.9445 5.17874 15.118 5.24612 15.2468 5.36922L18.0485 8.05012C18.1773 8.17322 18.2498 8.3411 18.2515 8.51521Z" fill="#0069AB"/>
</svg>
