<svg width="93" height="28" viewBox="0 0 93 28" fill="none" xmlns="http://www.w3.org/2000/svg">
<path d="M0.832169 17.7027C0.819647 16.435 1.05713 15.1771 1.53109 14.0011C2.00505 12.825 2.70617 11.7537 3.59445 10.8484C4.48272 9.94313 5.5407 9.2215 6.70805 8.72476C7.87545 8.22808 9.12927 7.96593 10.398 7.9534L10.4934 17.6073L0.832169 17.7027Z" fill="#00A4F4"/>
<path d="M0.83252 17.7021C0.845778 19.0445 1.10879 20.3712 1.60657 21.6066C2.10435 22.842 2.8271 23.9618 3.73361 24.9021C4.64011 25.8424 5.71256 26.5848 6.88977 27.0869C8.06704 27.589 9.32593 27.841 10.5947 27.8285L10.4937 17.6067L0.83252 17.7021Z" fill="#2CBEFF"/>
<path d="M20.1549 17.511C20.1681 18.8534 19.9315 20.185 19.4583 21.43C18.985 22.675 18.2845 23.8088 17.3966 24.7668C16.5089 25.7249 15.4512 26.4883 14.2841 27.0136C13.1171 27.5389 11.8633 27.8156 10.5946 27.8282L10.4937 17.6064L20.1549 17.511Z" fill="#75D4FF"/>
<path d="M26.322 8.93173C26.3623 13.0089 23.0871 16.3468 19.0069 16.3871L11.619 16.46L11.5461 9.07768C11.5058 5.00052 14.7809 1.66264 18.8611 1.62234C22.9413 1.58204 26.2817 4.85458 26.322 8.93173Z" fill="#0084D4"/>
<path d="M35.8667 20.8975L33.581 20.9201L33.4802 10.7106L35.7659 10.688L35.8059 14.7413L41.1392 14.6887L41.0992 10.6354L43.3849 10.6128L43.4857 20.8222L41.2 20.8448L41.1595 16.7458L35.8263 16.7985L35.8667 20.8975ZM48.7667 20.9225C46.222 20.9476 44.4725 19.7152 44.4457 17.0029C44.4216 14.5648 46.1283 13.0088 48.6426 12.9839C51.1416 12.9592 52.8155 14.2533 52.8391 16.6457C52.8418 16.92 52.8133 17.1183 52.7854 17.3777L46.5683 17.4391C46.6408 18.6118 47.1944 19.1093 48.6724 19.0947C50.0286 19.0813 50.4975 18.7261 50.4911 18.0709L50.4896 17.9185L52.7753 17.8959L52.7769 18.0636C52.7933 19.7245 51.1895 20.8985 48.7667 20.9225ZM48.6145 14.7672C47.2583 14.7806 46.6838 15.2435 46.5869 16.235L50.6402 16.195C50.5693 15.1899 49.9554 14.754 48.6145 14.7672ZM56.1969 20.8491C54.5512 20.8653 53.5532 20.1132 53.5405 18.8332C53.5294 17.7056 54.3606 16.9964 55.9894 16.8127L59.2622 16.4451L59.2594 16.1556C59.2496 15.1651 58.805 14.8952 57.5859 14.9072C56.4278 14.9186 55.9585 15.2281 55.9671 16.0966L55.9677 16.1576L53.6667 16.1803L53.6663 16.1346C53.6476 14.2451 55.2194 12.919 57.7337 12.8941C60.2784 12.869 61.4952 14.1676 61.5149 16.1638L61.5591 20.6437L59.4258 20.6648L59.4085 18.9124L59.2866 18.9136C58.9479 20.1056 57.8883 20.8324 56.1969 20.8491ZM55.84 18.6581C55.844 19.0695 56.1657 19.234 56.8361 19.2274C58.3904 19.212 59.2249 18.838 59.2752 17.7555L56.6268 18.0865C56.0786 18.1376 55.8363 18.2924 55.84 18.6581ZM65.0034 20.6097L62.7177 20.6323L62.6168 10.4228L64.9025 10.4003L65.0034 20.6097ZM68.4855 20.5753L66.1998 20.5979L66.099 10.3884L68.537 10.3644L72.2419 15.1587L73.665 17.2934L73.8326 17.2917L73.7056 15.2357L73.657 10.3138L75.9427 10.2912L76.0435 20.5006L73.6054 20.5247L69.7935 15.6858L68.4793 13.7786L68.3269 13.7801L68.4369 15.6534L68.4855 20.5753ZM81.311 20.601C78.7663 20.6261 77.0168 19.3938 76.99 16.6814C76.966 14.2434 78.6727 12.6873 81.1869 12.6625C83.6859 12.6378 85.3598 13.9319 85.3835 16.3242C85.3862 16.5985 85.3576 16.7969 85.3297 17.0562L79.1126 17.1177C79.1852 18.2904 79.7387 18.7878 81.2168 18.7732C82.573 18.7598 83.0419 18.4047 83.0354 17.7494L83.0339 17.5971L85.3196 17.5745L85.3213 17.7421C85.3377 19.403 83.7339 20.5771 81.311 20.601ZM81.1588 14.4458C79.8026 14.4592 79.2281 14.922 79.1312 15.9136L83.1845 15.8735C83.1136 14.8684 82.4998 14.4325 81.1588 14.4458ZM91.7721 20.3453L89.8826 20.364C88.0997 20.3816 87.0095 19.5542 86.9906 17.6342L86.9611 14.6475L85.7573 14.6594L85.7386 12.7699L86.9424 12.758L86.9278 11.28L89.2135 11.2574L89.2281 12.7355L91.6967 12.7111L91.7153 14.6006L89.2468 14.625L89.2737 17.3526C89.2812 18.1145 89.5727 18.3097 90.3803 18.3017L91.7517 18.2882L91.7721 20.3453Z" fill="#0069AB"/>
</svg>
