<svg width="25" height="25" viewBox="0 0 25 25" fill="none" xmlns="http://www.w3.org/2000/svg">
<rect x="0.0349121" y="0.270508" width="23.9465" height="23.9465" rx="4.35391" transform="rotate(-0.565899 0.0349121 0.270508)" fill="#EFF9FF"/>
<path d="M18.1563 5.53544L5.96593 5.65585C5.12785 5.66413 4.45627 6.32971 4.46422 7.13502L4.56926 18.5412C4.5757 19.1928 5.4018 19.5141 5.87724 19.0481L7.60543 17.3544L18.272 17.249C19.1101 17.2407 19.7893 16.5751 19.7813 15.7698L19.6946 6.98459C19.6866 6.17928 18.9944 5.52716 18.1563 5.53544ZM14.7468 12.4564L13.8677 12.1746L13.8768 13.0873C13.8807 13.49 13.5411 13.8228 13.1221 13.8269L9.63914 13.8613C9.22009 13.8655 8.87398 13.5394 8.87001 13.1368L8.83737 9.8326C8.83339 9.42995 9.17299 9.09712 9.59204 9.09298L13.075 9.05857C13.494 9.05444 13.8402 9.38049 13.8441 9.78315L13.8531 10.6958L14.7265 10.3968C14.9603 10.1602 15.3734 10.3245 15.3766 10.6466L15.3918 12.1864C15.3951 12.5159 14.9853 12.6883 14.7468 12.4564Z" fill="#0069AB"/>
</svg>
